<svg xmlns="http://www.w3.org/2000/svg" xmlns:xlink="http://www.w3.org/1999/xlink" width="500" zoomAndPan="magnify" viewBox="0 0 375 374.999991" height="500" preserveAspectRatio="xMidYMid meet" version="1.0"><defs><g/><clipPath id="c59f5d27e0"><path d="M 158 165 L 259.5 165 L 259.5 227 L 158 227 Z M 158 165 " clip-rule="nonzero"/></clipPath><clipPath id="33dde7fd56"><path d="M 115.5 83.761719 L 249 83.761719 L 249 233.761719 L 115.5 233.761719 Z M 115.5 83.761719 " clip-rule="nonzero"/></clipPath></defs><rect x="-37.5" width="450" fill="#ffffff" y="-37.499999" height="449.999989" fill-opacity="1"/><rect x="-37.5" width="450" fill="#ffffff" y="-37.499999" height="449.999989" fill-opacity="1"/><g clip-path="url(#c59f5d27e0)"><path fill="#00c2cb" d="M 232.078125 201.554688 C 236.582031 193.679688 239.152344 184.5625 239.152344 174.84375 C 239.152344 171.632812 238.871094 168.484375 238.332031 165.429688 C 236.152344 177.554688 229.707031 188.199219 220.601562 195.746094 C 215.332031 200.117188 207.492188 199.230469 203.367188 193.765625 L 195.675781 183.570312 C 194.394531 181.875 192.394531 180.878906 190.269531 180.878906 L 160.953125 180.878906 C 160.945312 180.878906 160.9375 180.878906 160.933594 180.878906 C 158.929688 180.894531 157.636719 183.003906 158.535156 184.796875 L 159.703125 187.121094 C 161.871094 191.441406 166.140625 194.3125 170.960938 194.691406 L 172.699219 194.828125 L 180.300781 195.429688 C 182.453125 195.597656 184.394531 196.789062 185.519531 198.628906 L 188.96875 204.269531 L 190.898438 207.425781 L 201.714844 225.117188 C 201.90625 225.433594 202.148438 225.707031 202.421875 225.9375 C 203.214844 226.601562 204.289062 226.878906 205.328125 226.621094 C 205.335938 226.617188 205.34375 226.617188 205.351562 226.613281 C 233.40625 219.691406 255.015625 196.421875 259.503906 167.488281 C 255.566406 182.332031 245.449219 194.660156 232.078125 201.554688 " fill-opacity="1" fill-rule="nonzero"/></g><g clip-path="url(#33dde7fd56)"><path fill="#003479" d="M 183.449219 199.894531 C 182.730469 198.71875 181.484375 197.953125 180.109375 197.84375 L 170.769531 197.109375 C 165.140625 196.667969 160.070312 193.257812 157.535156 188.207031 L 156.429688 186.007812 C 155.644531 184.441406 155.625 182.570312 156.492188 181.050781 C 157.386719 179.480469 159 178.511719 160.789062 178.457031 L 160.953125 178.453125 L 170.339844 178.453125 C 167.277344 173.625 161.761719 170.90625 156.054688 171.441406 L 146.300781 172.351562 C 142.125 172.742188 138.371094 169.863281 137.601562 165.738281 C 137.03125 162.679688 136.730469 159.527344 136.730469 156.304688 C 136.730469 139.960938 144.386719 125.410156 156.300781 116.03125 C 144.496094 123.808594 135.308594 135.234375 130.351562 148.703125 C 134.816406 116.25 162.65625 91.253906 196.335938 91.253906 C 217.1875 91.253906 235.796875 100.832031 248.011719 115.828125 C 235.027344 96.605469 213.0625 83.945312 188.136719 83.878906 C 148.234375 83.777344 115.578125 116.289062 115.519531 156.195312 C 115.5 170.242188 119.480469 183.355469 126.382812 194.464844 C 126.53125 194.699219 126.671875 194.933594 126.820312 195.167969 L 136.488281 193.527344 C 140.808594 192.796875 144.363281 196.972656 142.894531 201.097656 C 142.851562 201.210938 142.828125 201.273438 142.828125 201.273438 C 149.050781 203.539062 148 209.601562 148 209.601562 C 153.496094 212.105469 151.234375 217.28125 151.234375 217.28125 C 153.175781 218.082031 153.859375 219.65625 154.035156 220.167969 C 154.125 220.429688 154.222656 220.6875 154.324219 220.949219 L 158.082031 230.59375 C 158.730469 232.253906 160.714844 233.609375 162.496094 233.609375 C 164.742188 233.609375 166.296875 231.363281 165.503906 229.261719 L 163.746094 224.578125 L 161.398438 218.332031 C 161.234375 217.898438 161.535156 217.417969 162.007812 217.382812 C 162.320312 217.359375 162.601562 217.5625 162.722656 217.851562 L 165.804688 225.277344 L 168.089844 230.769531 C 168.875 232.664062 170.949219 233.75 172.914062 233.175781 C 175.273438 232.484375 176.445312 229.847656 175.378906 227.636719 C 175.378906 227.636719 175.378906 227.632812 175.378906 227.632812 L 169.730469 215.96875 C 169.488281 215.46875 169.820312 214.878906 170.375 214.824219 C 170.695312 214.792969 171 214.960938 171.152344 215.242188 L 178.023438 228.046875 L 178.875 229.636719 C 179.714844 231.199219 181.554688 232.015625 183.242188 231.457031 C 184.554688 231.023438 185.429688 229.925781 185.660156 228.6875 C 185.800781 227.929688 185.703125 227.121094 185.320312 226.375 L 179.941406 215.953125 C 179.707031 215.496094 179.878906 214.90625 180.355469 214.710938 C 180.777344 214.535156 181.25 214.714844 181.457031 215.105469 L 187.535156 226.585938 C 188.027344 227.511719 188.757812 228.230469 189.613281 228.707031 C 191.039062 229.496094 192.804688 229.609375 194.382812 228.863281 C 194.683594 228.722656 194.964844 228.550781 195.222656 228.359375 C 197.378906 226.796875 198.054688 223.785156 196.609375 221.417969 L 183.449219 199.894531 " fill-opacity="1" fill-rule="nonzero"/></g><path fill="#00c2cb" d="M 130.914062 204.25 L 138.519531 202.988281 C 140.800781 202.609375 142.34375 200.453125 141.964844 198.167969 C 141.585938 195.886719 139.429688 194.34375 137.148438 194.722656 L 129.542969 195.984375 C 127.261719 196.363281 125.71875 198.519531 126.097656 200.800781 C 126.476562 203.082031 128.632812 204.625 130.914062 204.25 " fill-opacity="1" fill-rule="nonzero"/><path fill="#00c2cb" d="M 145.84375 206.414062 C 145.464844 204.132812 143.308594 202.589844 141.027344 202.96875 L 130.648438 204.953125 C 128.367188 205.332031 126.824219 207.488281 127.203125 209.769531 C 127.578125 212.050781 129.738281 213.59375 132.019531 213.214844 L 142.398438 211.230469 C 144.679688 210.851562 146.222656 208.695312 145.84375 206.414062 " fill-opacity="1" fill-rule="nonzero"/><path fill="#00c2cb" d="M 149.347656 215.035156 C 148.96875 212.753906 146.8125 211.210938 144.53125 211.589844 L 136.925781 212.851562 C 134.644531 213.230469 133.101562 215.386719 133.480469 217.667969 C 133.859375 219.949219 136.015625 221.492188 138.296875 221.113281 L 145.898438 219.851562 C 148.183594 219.472656 149.726562 217.316406 149.347656 215.035156 " fill-opacity="1" fill-rule="nonzero"/><path fill="#00c2cb" d="M 149.808594 219.671875 L 143.566406 220.667969 C 141.285156 221.042969 139.742188 223.203125 140.121094 225.484375 C 140.496094 227.765625 142.65625 229.308594 144.9375 228.929688 L 151.179688 227.9375 C 153.464844 227.558594 155.007812 225.398438 154.628906 223.117188 C 154.25 220.835938 152.09375 219.292969 149.808594 219.671875 " fill-opacity="1" fill-rule="nonzero"/><g fill="#003479" fill-opacity="1"><g transform="translate(97.785509, 273.196413)"><g><path d="M 17.328125 -21.5625 C 17.753906 -21.5625 17.96875 -21.351562 17.96875 -20.9375 L 17.96875 -18.40625 C 17.96875 -17.976562 17.753906 -17.765625 17.328125 -17.765625 L 6.59375 -17.765625 L 6.59375 -10.625 L 15.171875 -10.625 C 15.410156 -10.625 15.597656 -10.5625 15.734375 -10.4375 C 15.867188 -10.320312 15.9375 -10.15625 15.9375 -9.9375 L 15.9375 -7.578125 C 15.9375 -7.378906 15.867188 -7.21875 15.734375 -7.09375 C 15.597656 -6.976562 15.410156 -6.921875 15.171875 -6.921875 L 6.59375 -6.921875 L 6.59375 -0.625 C 6.59375 -0.207031 6.390625 0 5.984375 0 L 3.203125 0 C 2.773438 0 2.5625 -0.207031 2.5625 -0.625 L 2.5625 -20.9375 C 2.5625 -21.351562 2.773438 -21.5625 3.203125 -21.5625 Z M 17.328125 -21.5625 "/></g></g></g><g fill="#003479" fill-opacity="1"><g transform="translate(119.787729, 273.196413)"><g><path d="M 16.109375 -6.375 L 19.015625 -0.71875 C 19.117188 -0.507812 19.128906 -0.332031 19.046875 -0.1875 C 18.972656 -0.0507812 18.820312 0.015625 18.59375 0.015625 L 15.46875 0.015625 C 15.34375 0.015625 15.207031 -0.03125 15.0625 -0.125 C 14.925781 -0.226562 14.820312 -0.359375 14.75 -0.515625 L 12.515625 -5.078125 C 12.285156 -5.046875 12.046875 -5.019531 11.796875 -5 C 11.546875 -4.988281 11.296875 -4.984375 11.046875 -4.984375 L 6.59375 -4.984375 L 6.59375 -0.609375 C 6.59375 -0.421875 6.53125 -0.269531 6.40625 -0.15625 C 6.28125 -0.0390625 6.125 0.015625 5.9375 0.015625 L 3.203125 0.015625 C 3.023438 0.015625 2.875 -0.0390625 2.75 -0.15625 C 2.625 -0.269531 2.5625 -0.421875 2.5625 -0.609375 L 2.5625 -20.953125 C 2.5625 -21.128906 2.625 -21.273438 2.75 -21.390625 C 2.875 -21.503906 3.023438 -21.5625 3.203125 -21.5625 L 3.921875 -21.5625 C 4.335938 -21.5625 4.742188 -21.5625 5.140625 -21.5625 C 5.546875 -21.5625 5.832031 -21.5625 6 -21.5625 L 11.046875 -21.5625 C 12.316406 -21.5625 13.476562 -21.351562 14.53125 -20.9375 C 15.59375 -20.53125 16.515625 -19.953125 17.296875 -19.203125 C 18.078125 -18.460938 18.679688 -17.578125 19.109375 -16.546875 C 19.546875 -15.523438 19.765625 -14.410156 19.765625 -13.203125 C 19.765625 -11.734375 19.4375 -10.410156 18.78125 -9.234375 C 18.125 -8.054688 17.234375 -7.101562 16.109375 -6.375 Z M 10.796875 -8.328125 C 11.753906 -8.328125 12.609375 -8.535156 13.359375 -8.953125 C 14.109375 -9.367188 14.695312 -9.945312 15.125 -10.6875 C 15.550781 -11.425781 15.765625 -12.273438 15.765625 -13.234375 C 15.765625 -13.929688 15.632812 -14.570312 15.375 -15.15625 C 15.125 -15.75 14.773438 -16.257812 14.328125 -16.6875 C 13.890625 -17.125 13.367188 -17.460938 12.765625 -17.703125 C 12.160156 -17.941406 11.503906 -18.0625 10.796875 -18.0625 L 6.59375 -18.0625 L 6.59375 -8.328125 Z M 10.796875 -8.328125 "/></g></g></g><g fill="#003479" fill-opacity="1"><g transform="translate(144.231754, 273.196413)"><g><path d="M 18.1875 -3.8125 C 18.445312 -3.8125 18.65625 -3.738281 18.8125 -3.59375 C 18.96875 -3.445312 19.046875 -3.253906 19.046875 -3.015625 L 19.046875 -0.625 C 19.046875 -0.4375 18.988281 -0.285156 18.875 -0.171875 C 18.757812 -0.0546875 18.601562 0 18.40625 0 L 3.203125 0 C 2.773438 0 2.5625 -0.207031 2.5625 -0.625 L 2.5625 -20.921875 C 2.5625 -21.347656 2.773438 -21.5625 3.203125 -21.5625 L 18.109375 -21.5625 C 18.316406 -21.5625 18.472656 -21.503906 18.578125 -21.390625 C 18.691406 -21.273438 18.75 -21.125 18.75 -20.9375 L 18.75 -18.421875 C 18.75 -17.984375 18.535156 -17.765625 18.109375 -17.765625 L 6.59375 -17.765625 L 6.59375 -11.8125 L 15.609375 -11.8125 C 15.835938 -11.8125 16.019531 -11.753906 16.15625 -11.640625 C 16.289062 -11.523438 16.359375 -11.359375 16.359375 -11.140625 L 16.359375 -8.78125 C 16.359375 -8.582031 16.289062 -8.425781 16.15625 -8.3125 C 16.019531 -8.195312 15.835938 -8.140625 15.609375 -8.140625 L 6.59375 -8.140625 L 6.59375 -3.8125 Z M 18.1875 -3.8125 "/></g></g></g><g fill="#003479" fill-opacity="1"><g transform="translate(167.639426, 273.196413)"><g><path d="M 18.1875 -3.8125 C 18.445312 -3.8125 18.65625 -3.738281 18.8125 -3.59375 C 18.96875 -3.445312 19.046875 -3.253906 19.046875 -3.015625 L 19.046875 -0.625 C 19.046875 -0.4375 18.988281 -0.285156 18.875 -0.171875 C 18.757812 -0.0546875 18.601562 0 18.40625 0 L 3.203125 0 C 2.773438 0 2.5625 -0.207031 2.5625 -0.625 L 2.5625 -20.921875 C 2.5625 -21.347656 2.773438 -21.5625 3.203125 -21.5625 L 18.109375 -21.5625 C 18.316406 -21.5625 18.472656 -21.503906 18.578125 -21.390625 C 18.691406 -21.273438 18.75 -21.125 18.75 -20.9375 L 18.75 -18.421875 C 18.75 -17.984375 18.535156 -17.765625 18.109375 -17.765625 L 6.59375 -17.765625 L 6.59375 -11.8125 L 15.609375 -11.8125 C 15.835938 -11.8125 16.019531 -11.753906 16.15625 -11.640625 C 16.289062 -11.523438 16.359375 -11.359375 16.359375 -11.140625 L 16.359375 -8.78125 C 16.359375 -8.582031 16.289062 -8.425781 16.15625 -8.3125 C 16.019531 -8.195312 15.835938 -8.140625 15.609375 -8.140625 L 6.59375 -8.140625 L 6.59375 -3.8125 Z M 18.1875 -3.8125 "/></g></g></g><g fill="#003479" fill-opacity="1"><g transform="translate(191.047098, 273.196413)"><g><path d="M 17.328125 -21.5625 C 17.753906 -21.5625 17.96875 -21.351562 17.96875 -20.9375 L 17.96875 -18.40625 C 17.96875 -17.976562 17.753906 -17.765625 17.328125 -17.765625 L 6.59375 -17.765625 L 6.59375 -10.625 L 15.171875 -10.625 C 15.410156 -10.625 15.597656 -10.5625 15.734375 -10.4375 C 15.867188 -10.320312 15.9375 -10.15625 15.9375 -9.9375 L 15.9375 -7.578125 C 15.9375 -7.378906 15.867188 -7.21875 15.734375 -7.09375 C 15.597656 -6.976562 15.410156 -6.921875 15.171875 -6.921875 L 6.59375 -6.921875 L 6.59375 -0.625 C 6.59375 -0.207031 6.390625 0 5.984375 0 L 3.203125 0 C 2.773438 0 2.5625 -0.207031 2.5625 -0.625 L 2.5625 -20.9375 C 2.5625 -21.351562 2.773438 -21.5625 3.203125 -21.5625 Z M 17.328125 -21.5625 "/></g></g></g><g fill="#003479" fill-opacity="1"><g transform="translate(213.049311, 273.196413)"><g><path d="M 16.328125 -3.515625 C 16.640625 -3.515625 16.796875 -3.351562 16.796875 -3.03125 L 16.796875 -0.484375 C 16.796875 -0.160156 16.640625 0 16.328125 0 L 3.046875 0 C 2.722656 0 2.5625 -0.160156 2.5625 -0.484375 L 2.5625 -21.109375 C 2.5625 -21.429688 2.722656 -21.59375 3.046875 -21.59375 L 6.125 -21.59375 C 6.4375 -21.59375 6.59375 -21.429688 6.59375 -21.109375 L 6.59375 -3.515625 Z M 16.328125 -3.515625 "/></g></g></g><g fill="#003479" fill-opacity="1"><g transform="translate(233.305343, 273.196413)"><g><path d="M 18.1875 -3.8125 C 18.445312 -3.8125 18.65625 -3.738281 18.8125 -3.59375 C 18.96875 -3.445312 19.046875 -3.253906 19.046875 -3.015625 L 19.046875 -0.625 C 19.046875 -0.4375 18.988281 -0.285156 18.875 -0.171875 C 18.757812 -0.0546875 18.601562 0 18.40625 0 L 3.203125 0 C 2.773438 0 2.5625 -0.207031 2.5625 -0.625 L 2.5625 -20.921875 C 2.5625 -21.347656 2.773438 -21.5625 3.203125 -21.5625 L 18.109375 -21.5625 C 18.316406 -21.5625 18.472656 -21.503906 18.578125 -21.390625 C 18.691406 -21.273438 18.75 -21.125 18.75 -20.9375 L 18.75 -18.421875 C 18.75 -17.984375 18.535156 -17.765625 18.109375 -17.765625 L 6.59375 -17.765625 L 6.59375 -11.8125 L 15.609375 -11.8125 C 15.835938 -11.8125 16.019531 -11.753906 16.15625 -11.640625 C 16.289062 -11.523438 16.359375 -11.359375 16.359375 -11.140625 L 16.359375 -8.78125 C 16.359375 -8.582031 16.289062 -8.425781 16.15625 -8.3125 C 16.019531 -8.195312 15.835938 -8.140625 15.609375 -8.140625 L 6.59375 -8.140625 L 6.59375 -3.8125 Z M 18.1875 -3.8125 "/></g></g></g><g fill="#003479" fill-opacity="1"><g transform="translate(256.713021, 273.196413)"><g><path d="M 19.671875 -0.75 C 19.828125 -0.53125 19.863281 -0.347656 19.78125 -0.203125 C 19.707031 -0.0546875 19.539062 0.015625 19.28125 0.015625 L 15.8125 0.015625 C 15.675781 0.015625 15.535156 -0.0234375 15.390625 -0.109375 C 15.253906 -0.191406 15.132812 -0.320312 15.03125 -0.5 L 10.234375 -8.125 L 5.46875 -0.515625 C 5.363281 -0.335938 5.238281 -0.203125 5.09375 -0.109375 C 4.957031 -0.0234375 4.820312 0.015625 4.6875 0.015625 L 1.1875 0.015625 C 0.945312 0.015625 0.785156 -0.0546875 0.703125 -0.203125 C 0.617188 -0.347656 0.65625 -0.53125 0.8125 -0.75 L 7.75 -11.1875 L 1.34375 -20.8125 C 1.195312 -21.03125 1.15625 -21.210938 1.21875 -21.359375 C 1.289062 -21.515625 1.445312 -21.59375 1.6875 -21.59375 L 5.21875 -21.59375 C 5.34375 -21.59375 5.476562 -21.546875 5.625 -21.453125 C 5.769531 -21.359375 5.890625 -21.226562 5.984375 -21.0625 L 10.234375 -14.234375 L 14.484375 -21.0625 C 14.585938 -21.226562 14.710938 -21.359375 14.859375 -21.453125 C 15.003906 -21.546875 15.140625 -21.59375 15.265625 -21.59375 L 18.8125 -21.59375 C 19.039062 -21.59375 19.1875 -21.519531 19.25 -21.375 C 19.320312 -21.226562 19.285156 -21.046875 19.140625 -20.828125 L 12.921875 -11.203125 Z M 19.671875 -0.75 "/></g></g></g><g fill="#545454" fill-opacity="1"><g transform="translate(134.276653, 289.439097)"><g><path d="M 4.953125 -6.171875 C 5.078125 -6.171875 5.140625 -6.109375 5.140625 -5.984375 L 5.140625 -5.265625 C 5.140625 -5.140625 5.078125 -5.078125 4.953125 -5.078125 L 1.890625 -5.078125 L 1.890625 -3.03125 L 4.34375 -3.03125 C 4.40625 -3.03125 4.453125 -3.015625 4.484375 -2.984375 C 4.523438 -2.953125 4.546875 -2.90625 4.546875 -2.84375 L 4.546875 -2.171875 C 4.546875 -2.109375 4.523438 -2.0625 4.484375 -2.03125 C 4.453125 -2 4.40625 -1.984375 4.34375 -1.984375 L 1.890625 -1.984375 L 1.890625 -0.171875 C 1.890625 -0.0546875 1.828125 0 1.703125 0 L 0.921875 0 C 0.796875 0 0.734375 -0.0546875 0.734375 -0.171875 L 0.734375 -5.984375 C 0.734375 -6.109375 0.796875 -6.171875 0.921875 -6.171875 Z M 4.953125 -6.171875 "/></g></g></g><g fill="#545454" fill-opacity="1"><g transform="translate(146.37951, 289.439097)"><g><path d="M 4.609375 -1.828125 L 5.4375 -0.203125 C 5.46875 -0.148438 5.472656 -0.101562 5.453125 -0.0625 C 5.429688 -0.0195312 5.382812 0 5.3125 0 L 4.421875 0 C 4.390625 0 4.351562 -0.0078125 4.3125 -0.03125 C 4.269531 -0.0625 4.238281 -0.0976562 4.21875 -0.140625 L 3.578125 -1.453125 C 3.515625 -1.441406 3.445312 -1.429688 3.375 -1.421875 C 3.300781 -1.421875 3.226562 -1.421875 3.15625 -1.421875 L 1.890625 -1.421875 L 1.890625 -0.171875 C 1.890625 -0.117188 1.867188 -0.078125 1.828125 -0.046875 C 1.796875 -0.015625 1.753906 0 1.703125 0 L 0.921875 0 C 0.867188 0 0.820312 -0.015625 0.78125 -0.046875 C 0.75 -0.078125 0.734375 -0.117188 0.734375 -0.171875 L 0.734375 -5.984375 C 0.734375 -6.035156 0.75 -6.078125 0.78125 -6.109375 C 0.820312 -6.148438 0.867188 -6.171875 0.921875 -6.171875 L 1.125 -6.171875 C 1.238281 -6.171875 1.351562 -6.171875 1.46875 -6.171875 C 1.582031 -6.171875 1.664062 -6.171875 1.71875 -6.171875 L 3.15625 -6.171875 C 3.519531 -6.171875 3.851562 -6.109375 4.15625 -5.984375 C 4.457031 -5.867188 4.71875 -5.703125 4.9375 -5.484375 C 5.164062 -5.273438 5.34375 -5.023438 5.46875 -4.734375 C 5.59375 -4.441406 5.65625 -4.125 5.65625 -3.78125 C 5.65625 -3.351562 5.5625 -2.972656 5.375 -2.640625 C 5.1875 -2.304688 4.929688 -2.035156 4.609375 -1.828125 Z M 3.078125 -2.375 C 3.359375 -2.375 3.601562 -2.429688 3.8125 -2.546875 C 4.03125 -2.671875 4.195312 -2.835938 4.3125 -3.046875 C 4.4375 -3.265625 4.5 -3.507812 4.5 -3.78125 C 4.5 -3.976562 4.460938 -4.160156 4.390625 -4.328125 C 4.328125 -4.503906 4.226562 -4.648438 4.09375 -4.765625 C 3.96875 -4.890625 3.816406 -4.984375 3.640625 -5.046875 C 3.472656 -5.117188 3.285156 -5.15625 3.078125 -5.15625 L 1.890625 -5.15625 L 1.890625 -2.375 Z M 3.078125 -2.375 "/></g></g></g><g fill="#545454" fill-opacity="1"><g transform="translate(159.180124, 289.439097)"><g><path d="M 5.203125 -1.09375 C 5.273438 -1.09375 5.332031 -1.070312 5.375 -1.03125 C 5.425781 -0.988281 5.453125 -0.929688 5.453125 -0.859375 L 5.453125 -0.171875 C 5.453125 -0.117188 5.429688 -0.078125 5.390625 -0.046875 C 5.359375 -0.015625 5.316406 0 5.265625 0 L 0.921875 0 C 0.796875 0 0.734375 -0.0546875 0.734375 -0.171875 L 0.734375 -5.984375 C 0.734375 -6.109375 0.796875 -6.171875 0.921875 -6.171875 L 5.171875 -6.171875 C 5.234375 -6.171875 5.28125 -6.148438 5.3125 -6.109375 C 5.34375 -6.078125 5.359375 -6.035156 5.359375 -5.984375 L 5.359375 -5.265625 C 5.359375 -5.140625 5.296875 -5.078125 5.171875 -5.078125 L 1.890625 -5.078125 L 1.890625 -3.375 L 4.453125 -3.375 C 4.523438 -3.375 4.578125 -3.359375 4.609375 -3.328125 C 4.648438 -3.296875 4.671875 -3.25 4.671875 -3.1875 L 4.671875 -2.515625 C 4.671875 -2.453125 4.648438 -2.40625 4.609375 -2.375 C 4.578125 -2.34375 4.523438 -2.328125 4.453125 -2.328125 L 1.890625 -2.328125 L 1.890625 -1.09375 Z M 5.203125 -1.09375 "/></g></g></g><g fill="#545454" fill-opacity="1"><g transform="translate(171.684598, 289.439097)"><g><path d="M 5.203125 -1.09375 C 5.273438 -1.09375 5.332031 -1.070312 5.375 -1.03125 C 5.425781 -0.988281 5.453125 -0.929688 5.453125 -0.859375 L 5.453125 -0.171875 C 5.453125 -0.117188 5.429688 -0.078125 5.390625 -0.046875 C 5.359375 -0.015625 5.316406 0 5.265625 0 L 0.921875 0 C 0.796875 0 0.734375 -0.0546875 0.734375 -0.171875 L 0.734375 -5.984375 C 0.734375 -6.109375 0.796875 -6.171875 0.921875 -6.171875 L 5.171875 -6.171875 C 5.234375 -6.171875 5.28125 -6.148438 5.3125 -6.109375 C 5.34375 -6.078125 5.359375 -6.035156 5.359375 -5.984375 L 5.359375 -5.265625 C 5.359375 -5.140625 5.296875 -5.078125 5.171875 -5.078125 L 1.890625 -5.078125 L 1.890625 -3.375 L 4.453125 -3.375 C 4.523438 -3.375 4.578125 -3.359375 4.609375 -3.328125 C 4.648438 -3.296875 4.671875 -3.25 4.671875 -3.1875 L 4.671875 -2.515625 C 4.671875 -2.453125 4.648438 -2.40625 4.609375 -2.375 C 4.578125 -2.34375 4.523438 -2.328125 4.453125 -2.328125 L 1.890625 -2.328125 L 1.890625 -1.09375 Z M 5.203125 -1.09375 "/></g></g></g><g fill="#545454" fill-opacity="1"><g transform="translate(184.189069, 289.439097)"><g><path d="M 4.671875 -1 C 4.753906 -1 4.796875 -0.957031 4.796875 -0.875 L 4.796875 -0.140625 C 4.796875 -0.046875 4.753906 0 4.671875 0 L 0.875 0 C 0.78125 0 0.734375 -0.046875 0.734375 -0.140625 L 0.734375 -6.03125 C 0.734375 -6.125 0.78125 -6.171875 0.875 -6.171875 L 1.75 -6.171875 C 1.84375 -6.171875 1.890625 -6.125 1.890625 -6.03125 L 1.890625 -1 Z M 4.671875 -1 "/></g></g></g><g fill="#545454" fill-opacity="1"><g transform="translate(195.792946, 289.439097)"><g><path d="M 5.96875 -0.203125 C 6 -0.140625 6 -0.0859375 5.96875 -0.046875 C 5.945312 -0.00390625 5.90625 0.015625 5.84375 0.015625 L 4.96875 0.015625 C 4.914062 0.015625 4.867188 0 4.828125 -0.03125 C 4.796875 -0.0625 4.769531 -0.101562 4.75 -0.15625 L 4.515625 -0.75 L 1.671875 -0.75 L 1.421875 -0.15625 C 1.410156 -0.113281 1.382812 -0.078125 1.34375 -0.046875 C 1.3125 -0.015625 1.269531 0 1.21875 0 L 0.34375 0 C 0.28125 0 0.234375 -0.015625 0.203125 -0.046875 C 0.179688 -0.0859375 0.1875 -0.140625 0.21875 -0.203125 L 2.84375 -6.09375 C 2.863281 -6.132812 2.894531 -6.171875 2.9375 -6.203125 C 2.976562 -6.234375 3.019531 -6.25 3.0625 -6.25 L 3.109375 -6.25 C 3.160156 -6.25 3.203125 -6.234375 3.234375 -6.203125 C 3.273438 -6.171875 3.3125 -6.128906 3.34375 -6.078125 Z M 2.078125 -1.734375 L 4.109375 -1.734375 L 3.09375 -4.1875 Z M 2.078125 -1.734375 "/></g></g></g><g fill="#545454" fill-opacity="1"><g transform="translate(208.6179, 289.439097)"><g><path d="M 6.09375 -6.171875 C 6.175781 -6.171875 6.21875 -6.128906 6.21875 -6.046875 L 6.21875 -0.109375 C 6.21875 -0.046875 6.203125 0 6.171875 0.03125 C 6.148438 0.0625 6.113281 0.078125 6.0625 0.078125 C 6.007812 0.078125 5.960938 0.0625 5.921875 0.03125 C 5.890625 0 5.851562 -0.03125 5.8125 -0.0625 L 1.890625 -3.796875 L 1.890625 -0.125 C 1.890625 -0.0390625 1.84375 0 1.75 0 L 0.875 0 C 0.78125 0 0.734375 -0.0390625 0.734375 -0.125 L 0.734375 -6.0625 C 0.734375 -6.113281 0.742188 -6.15625 0.765625 -6.1875 C 0.796875 -6.226562 0.835938 -6.25 0.890625 -6.25 L 0.90625 -6.25 C 0.945312 -6.25 0.984375 -6.234375 1.015625 -6.203125 C 1.046875 -6.171875 1.082031 -6.132812 1.125 -6.09375 L 5.078125 -2.359375 L 5.078125 -6.046875 C 5.078125 -6.128906 5.125 -6.171875 5.21875 -6.171875 Z M 6.09375 -6.171875 "/></g></g></g><g fill="#545454" fill-opacity="1"><g transform="translate(222.221746, 289.439097)"><g><path d="M 4.8125 -1.484375 C 4.863281 -1.515625 4.914062 -1.53125 4.96875 -1.53125 C 5.019531 -1.53125 5.054688 -1.507812 5.078125 -1.46875 L 5.546875 -0.765625 C 5.566406 -0.734375 5.566406 -0.691406 5.546875 -0.640625 C 5.535156 -0.597656 5.507812 -0.5625 5.46875 -0.53125 C 5.300781 -0.40625 5.113281 -0.296875 4.90625 -0.203125 C 4.695312 -0.109375 4.476562 -0.0351562 4.25 0.015625 C 4.019531 0.0664062 3.800781 0.09375 3.59375 0.09375 C 3.238281 0.09375 2.894531 0.0390625 2.5625 -0.0625 C 2.238281 -0.164062 1.941406 -0.3125 1.671875 -0.5 C 1.410156 -0.695312 1.179688 -0.925781 0.984375 -1.1875 C 0.785156 -1.445312 0.628906 -1.738281 0.515625 -2.0625 C 0.410156 -2.382812 0.359375 -2.722656 0.359375 -3.078125 C 0.359375 -3.429688 0.410156 -3.765625 0.515625 -4.078125 C 0.628906 -4.398438 0.785156 -4.691406 0.984375 -4.953125 C 1.179688 -5.222656 1.410156 -5.453125 1.671875 -5.640625 C 1.941406 -5.835938 2.238281 -5.988281 2.5625 -6.09375 C 2.894531 -6.207031 3.238281 -6.265625 3.59375 -6.265625 C 3.800781 -6.265625 4.019531 -6.238281 4.25 -6.1875 C 4.476562 -6.132812 4.695312 -6.054688 4.90625 -5.953125 C 5.125 -5.859375 5.316406 -5.742188 5.484375 -5.609375 C 5.535156 -5.578125 5.5625 -5.535156 5.5625 -5.484375 C 5.570312 -5.441406 5.566406 -5.40625 5.546875 -5.375 L 5.078125 -4.6875 C 5.054688 -4.644531 5.019531 -4.617188 4.96875 -4.609375 C 4.925781 -4.609375 4.878906 -4.628906 4.828125 -4.671875 C 4.648438 -4.816406 4.453125 -4.925781 4.234375 -5 C 4.015625 -5.082031 3.800781 -5.125 3.59375 -5.125 C 3.300781 -5.125 3.03125 -5.070312 2.78125 -4.96875 C 2.53125 -4.863281 2.304688 -4.71875 2.109375 -4.53125 C 1.921875 -4.34375 1.773438 -4.125 1.671875 -3.875 C 1.566406 -3.625 1.515625 -3.359375 1.515625 -3.078125 C 1.515625 -2.796875 1.566406 -2.53125 1.671875 -2.28125 C 1.773438 -2.03125 1.921875 -1.8125 2.109375 -1.625 C 2.304688 -1.445312 2.53125 -1.304688 2.78125 -1.203125 C 3.03125 -1.097656 3.300781 -1.046875 3.59375 -1.046875 C 3.789062 -1.046875 4 -1.082031 4.21875 -1.15625 C 4.4375 -1.238281 4.632812 -1.347656 4.8125 -1.484375 Z M 4.8125 -1.484375 "/></g></g></g><g fill="#545454" fill-opacity="1"><g transform="translate(234.843868, 289.439097)"><g><path d="M 5.203125 -1.09375 C 5.273438 -1.09375 5.332031 -1.070312 5.375 -1.03125 C 5.425781 -0.988281 5.453125 -0.929688 5.453125 -0.859375 L 5.453125 -0.171875 C 5.453125 -0.117188 5.429688 -0.078125 5.390625 -0.046875 C 5.359375 -0.015625 5.316406 0 5.265625 0 L 0.921875 0 C 0.796875 0 0.734375 -0.0546875 0.734375 -0.171875 L 0.734375 -5.984375 C 0.734375 -6.109375 0.796875 -6.171875 0.921875 -6.171875 L 5.171875 -6.171875 C 5.234375 -6.171875 5.28125 -6.148438 5.3125 -6.109375 C 5.34375 -6.078125 5.359375 -6.035156 5.359375 -5.984375 L 5.359375 -5.265625 C 5.359375 -5.140625 5.296875 -5.078125 5.171875 -5.078125 L 1.890625 -5.078125 L 1.890625 -3.375 L 4.453125 -3.375 C 4.523438 -3.375 4.578125 -3.359375 4.609375 -3.328125 C 4.648438 -3.296875 4.671875 -3.25 4.671875 -3.1875 L 4.671875 -2.515625 C 4.671875 -2.453125 4.648438 -2.40625 4.609375 -2.375 C 4.578125 -2.34375 4.523438 -2.328125 4.453125 -2.328125 L 1.890625 -2.328125 L 1.890625 -1.09375 Z M 5.203125 -1.09375 "/></g></g></g></svg>